#!OML:ASF X:\für Bonn\!DataBase\2005_08_12_Daniel\c3d\Daniel.ASF
:FULLY-SPECIFIED
:DEGREES
198
root -0.287382 14.1357 -4.12482 169.618 -12.7652 -178.788
lowerback 61.9256 -4.24049 15.3606
upperback 11.2738 -2.86858 -0.523091
thorax -8.23418 -4.01368 -5.36882
lowerneck 5.74561 -6.00987 -8.53157
upperneck 6.47401 -9.00862 5.32585
head 1.77025 -4.74642 3.19958
rclavicle -2.94201e-014 -6.44062e-014
rhumerus -0.497046 2.80616 -74.92
rradius 20.112
rwrist 13.957
rhand -18.2206 15.6217
rfingers 7.12502
rthumb 8.05744 -14.2047
lclavicle -2.94201e-014 -6.44062e-014
lhumerus -15.0991 -14.0237 96.7572
lradius 62.9714
lwrist -17.5403
lhand -22.2739 -3.16715
lfingers 7.12502
lthumb 4.14432 26.7723
rfemur -40.2275 -11.616 11.128
rtibia 96.0954
rfoot -14.7185 15.1076
rtoes -5.29693
lfemur -39.4985 3.74103 -21.9292
ltibia 92.4354
lfoot -38.4872 -10.5422
ltoes -0.180072
199
root -0.301663 14.2367 -4.17319 169.722 -12.7535 -178.533
lowerback 61.2264 -4.11773 15.2235
upperback 11.2813 -2.80617 -0.561399
thorax -8.23064 -3.94032 -5.42399
lowerneck 5.72647 -5.92182 -8.69512
upperneck 6.48156 -8.9003 5.44882
head 1.78356 -4.69531 3.27317
rclavicle 1.66979e-014 -3.97569e-016
rhumerus -1.2398 2.79457 -75.5034
rradius 20.1
rwrist 14.274
rhand -18.3078 15.8644
rfingers 7.12502
rthumb 7.97326 -13.9652
lclavicle 1.66979e-014 -3.97569e-016
lhumerus -14.7747 -13.5586 96.7348
lradius 61.3127
lwrist -18.1397
lhand -21.9847 -3.78944
lfingers 7.12502
lthumb 4.42357 26.1444
rfemur -39.6159 -11.2592 11.6037
rtibia 95.0761
rfoot -14.4581 14.478
rtoes -5.67843
lfemur -38.6453 3.39021 -21.7017
ltibia 91.2514
lfoot -38.6006 -10.2551
ltoes -0.262082
200
root -0.315383 14.3367 -4.22431 169.826 -12.758 -178.312
lowerback 60.5024 -3.97655 15.0361
upperback 11.3026 -2.7573 -0.583223
thorax -8.2106 -3.8747 -5.43555
lowerneck 5.74195 -5.82384 -8.84534
upperneck 6.41439 -8.77439 5.55911
head 1.7628 -4.63406 3.34299
rclavicle 2.62396e-014 3.06128e-014
rhumerus -1.98428 2.80979 -76.0773
rradius 20.1238
rwrist 14.4084
rhand -18.4308 16.0271
rfingers 7.12502
rthumb 7.85457 -13.8069
lclavicle 2.62396e-014 3.06128e-014
lhumerus -14.4113 -13.0356 96.6975
lradius 59.6613
lwrist -18.7603
lhand -21.6135 -4.31484
lfingers 7.12502
lthumb 4.78197 25.6112
rfemur -39.0083 -10.9198 12.0329
rtibia 94.0819
rfoot -14.1259 13.8412
rtoes -5.95238
lfemur -37.7748 3.01729 -21.5141
ltibia 90.0571
lfoot -38.7163 -9.93864
ltoes -0.486388
201
root -0.328655 14.4359 -4.27683 169.927 -12.7378 -178.089
lowerback 59.7725 -3.80252 14.8059
upperback 11.3087 -2.68447 -0.580132
thorax -8.20166 -3.80055 -5.41102
lowerneck 5.78599 -5.71901 -9.00481
upperneck 6.39619 -8.64835 5.66171
head 1.75285 -4.57547 3.41243
rclavicle -5.56597e-015 -3.57812e-014
rhumerus -2.78796 2.80639 -76.6437
rradius 20.1734
rwrist 14.5518
rhand -18.5619 16.1247
rfingers 7.12502
rthumb 7.72804 -13.7141
lclavicle -5.56597e-015 -3.57812e-014
lhumerus -14.0697 -12.5328 96.672
lradius 58.0051
lwrist -19.3101
lhand -21.256 -4.85211
lfingers 7.12502
lthumb 5.12717 25.0659
rfemur -38.4561 -10.5651 12.4848
rtibia 93.1239
rfoot -13.7315 13.1375
rtoes -6.29301
lfemur -36.9064 2.67858 -21.3157
ltibia 88.8672
lfoot -38.8115 -9.63421
ltoes -0.585376
